<svg width="960" height="520" viewBox="0 0 960 520" fill="none" xmlns="http://www.w3.org/2000/svg">
  <rect width="960" height="520" rx="34" fill="#FAFAF8"/>
  <path d="M0 104H960M0 208H960M0 312H960M0 416H960M160 0V520M320 0V520M480 0V520M640 0V520M800 0V520" stroke="#E7E1D8"/>
  <g stroke="#1A1A1A" stroke-width="4" stroke-linecap="round">
    <path d="M160 260C252 150 356 150 448 260S644 370 800 238"/>
  </g>
  <circle r="17" fill="#E53935">
    <animateMotion dur="4.5s" repeatCount="indefinite" path="M160 260C252 150 356 150 448 260S644 370 800 238"/>
  </circle>
  <g>
    <circle cx="160" cy="260" r="44" fill="#1E88E5"/>
    <circle cx="448" cy="260" r="44" fill="#FDD835"/>
    <circle cx="800" cy="238" r="44" fill="#1B8B77"/>
  </g>
  <g font-family="Inter, Arial, sans-serif" font-size="18" font-weight="900" text-anchor="middle">
    <text x="160" y="267" fill="white">INPUT</text>
    <text x="448" y="267" fill="#1A1A1A">CHANGE</text>
    <text x="800" y="245" fill="white">RESULT</text>
  </g>
  <g font-family="Inter, Arial, sans-serif" fill="#1A1A1A">
    <text x="70" y="82" font-size="36" font-weight="900">Cause to effect</text>
    <text x="72" y="112" font-size="15" fill="#666">watch the idea move through the system</text>
  </g>
</svg>
