<svg width="960" height="520" viewBox="0 0 960 520" fill="none" xmlns="http://www.w3.org/2000/svg">
  <rect width="960" height="520" rx="34" fill="#F7F7F7"/>
  <path d="M0 86H960M0 172H960M0 258H960M0 344H960M0 430H960M120 0V520M240 0V520M360 0V520M480 0V520M600 0V520M720 0V520M840 0V520" stroke="#E4E4E4"/>
  <path d="M150 250L316 164L476 264L650 134L805 254" stroke="#1A1A1A" stroke-width="4" stroke-linecap="round"/>
  <path d="M316 164L330 356L476 264L650 372L805 254" stroke="#8D6E63" stroke-width="3" stroke-linecap="round"/>
  <circle cx="150" cy="250" r="38" fill="#1E88E5"/>
  <circle cx="316" cy="164" r="38" fill="#E53935"/>
  <circle cx="476" cy="264" r="38" fill="#FDD835"/>
  <circle cx="650" cy="134" r="38" fill="#1B8B77"/>
  <circle cx="805" cy="254" r="38" fill="#F03893"/>
  <circle cx="330" cy="356" r="30" fill="#29C5F6"/>
  <circle cx="650" cy="372" r="30" fill="#FF8C3A"/>
  <g font-family="Inter, Arial, sans-serif" font-weight="800" font-size="22">
    <text x="129" y="258" fill="white">IN</text>
    <text x="295" y="172" fill="white">W</text>
    <text x="458" y="272" fill="#1A1A1A">Σ</text>
    <text x="628" y="142" fill="white">ACT</text>
    <text x="784" y="262" fill="white">OUT</text>
  </g>
  <g font-family="Inter, Arial, sans-serif" font-size="18" fill="#444">
    <text x="92" y="332">inputs</text>
    <text x="260" y="104">weighted signals</text>
    <text x="413" y="336">summed error</text>
    <text x="585" y="78">activation</text>
    <text x="742" y="330">prediction</text>
  </g>
</svg>
