<svg width="960" height="520" viewBox="0 0 960 520" fill="none" xmlns="http://www.w3.org/2000/svg">
  <rect width="960" height="520" rx="34" fill="#F7F7F7"/>
  <g font-family="Inter, Arial, sans-serif">
    <text x="84" y="110" font-size="44" font-weight="900" fill="#1A1A1A">Project steps</text>
    <text x="86" y="142" font-size="16" fill="#666">break a concept into actions</text>
    <g font-size="20" font-weight="900" fill="#1A1A1A"><text x="92" y="220">01</text><text x="92" y="290">02</text><text x="92" y="360">03</text><text x="92" y="430">04</text></g>
    <g font-size="18" font-weight="800" fill="#2A2A2A"><text x="140" y="220">Notice the moving part</text><text x="140" y="290">Split into smaller steps</text><text x="140" y="360">Test with active recall</text><text x="140" y="430">Review before forgetting</text></g>
    <g font-size="12" fill="#666"><text x="140" y="242">What is changing?</text><text x="140" y="312">What depends on what?</text><text x="140" y="382">Can you explain without notes?</text><text x="140" y="452">Schedule the weak point.</text></g>
  </g>
  <g stroke="#E53935" stroke-width="3" stroke-linecap="round">
    <path d="M440 190C530 214 603 241 690 262"/><path d="M440 226C530 236 603 251 690 262"/><path d="M440 262H690"/><path d="M440 298C530 288 603 273 690 262"/><path d="M440 334C530 310 603 283 690 262"/><path d="M440 370C530 333 603 296 690 262"/>
  </g>
  <path d="M690 262H830" stroke="#1A1A1A" stroke-width="3" stroke-linecap="round"/>
  <circle cx="690" cy="262" r="12" fill="#E53935"/>
  <path d="M835 262C846 248 865 249 876 262C862 277 846 277 835 262Z" fill="#1A1A1A"/>
</svg>
