<svg width="299" height="310" viewBox="0 0 299 310" fill="none" xmlns="http://www.w3.org/2000/svg">
<rect x="5" y="5" width="288.08" height="299.79" rx="23" stroke="#E53935" stroke-width="10"/>
<path d="M106.478 241.35C107.335 238.855 108.7 236.596 108.961 233.902C111.344 235.441 109.147 239.897 107.72 241.35C104.616 257.983 97.4048 273.498 97.7895 291C126.338 291 154.887 291 183.436 291C192.994 261.967 203.16 232.562 213.227 204.112C213.636 233.046 192.982 260.44 199.573 291C214.058 291 228.531 291 243.017 291C240.956 264.077 233.409 234.908 233 207.923C232.578 180.95 206.859 156.373 178.471 156.944C176.597 164.764 181.984 178.095 174.748 181.769C174.487 173.093 178.31 165.484 178.471 156.944C171.073 157.316 166.282 150.8 159.852 148.255C191.852 154.511 232.702 124.274 226.856 91.1822C220.997 58.1027 204.24 31.5522 172.538 21.3739C140.836 11.1956 106.131 35.1767 97.5165 66.0592C88.9022 96.9417 107.335 134.8 139.992 143.29C138.267 167.929 111.17 164.603 94.1651 175.662C77.1723 186.734 74.4539 208.804 67.7263 227.423C60.9863 246.029 52.1361 269.551 54.3455 291C67.1677 291 80.0023 291 92.8245 291C93.6437 273.411 100.93 257.561 106.478 241.35ZM193.366 41.5071C201.944 42.4628 204.414 51.6606 209.403 57.7427C214.406 63.8125 214.865 78.9434 204.538 77.5035C194.211 76.0637 192.485 68.9637 187.259 62.5091C182.046 56.0546 182.89 40.3403 193.366 41.5071ZM151.164 55.1609C173.295 58.9343 180.457 96.3707 156.129 96.1224C131.8 95.8742 126.823 51.0151 151.164 55.1609Z" fill="#1E88E5"/>
<path d="M178.471 156.944C206.859 156.373 232.578 180.95 233 207.923C233.409 234.908 240.956 264.077 243.017 291C228.531 291 214.058 291 199.573 291C192.982 260.44 213.636 233.046 213.227 204.112C203.16 232.562 192.994 261.967 183.436 291C154.887 291 126.338 291 97.7895 291C97.4048 273.498 104.616 257.983 107.72 241.35C109.147 239.897 111.344 235.441 108.961 233.902C108.7 236.596 107.335 238.855 106.478 241.35C100.93 257.561 93.6437 273.411 92.8245 291C80.0023 291 67.1677 291 54.3455 291C52.1361 269.551 60.9863 246.029 67.7263 227.423C74.4539 208.804 77.1723 186.734 94.1651 175.662C111.17 164.603 138.267 167.929 139.992 143.29C107.335 134.8 88.9022 96.9417 97.5165 66.0592C106.131 35.1767 140.836 11.1956 172.538 21.3739C204.24 31.5522 220.997 58.1027 226.856 91.1822C232.702 124.274 191.852 154.511 159.852 148.255C166.282 150.8 171.073 157.316 178.471 156.944ZM178.471 156.944C176.597 164.764 181.984 178.095 174.748 181.769C174.487 173.093 178.31 165.484 178.471 156.944ZM193.366 41.5071C201.944 42.4628 204.414 51.6606 209.403 57.7427C214.406 63.8125 214.865 78.9434 204.538 77.5035C194.211 76.0637 192.485 68.9637 187.259 62.5091C182.046 56.0546 182.89 40.3403 193.366 41.5071ZM151.164 55.1609C173.295 58.9343 180.457 96.3707 156.129 96.1224C131.8 95.8742 126.823 51.0151 151.164 55.1609Z" stroke="#0D0D0D" stroke-opacity="0.18"/>
</svg>
